<mxfile host="app.diagrams.net" agent="Mozilla/5.0 (Windows NT 10.0; Win64; x64) AppleWebKit/537.36 (KHTML, like Gecko) Chrome/134.0.0.0 Safari/537.36" version="26.1.0">
  <diagram id="C5RBs43oDa-KdzZeNtuy" name="Page-1">
    <mxGraphModel dx="1434" dy="738" grid="1" gridSize="10" guides="1" tooltips="1" connect="1" arrows="1" fold="1" page="1" pageScale="1" pageWidth="827" pageHeight="1169" math="0" shadow="0">
      <root>
        <mxCell id="WIyWlLk6GJQsqaUBKTNV-0" />
        <mxCell id="WIyWlLk6GJQsqaUBKTNV-1" parent="WIyWlLk6GJQsqaUBKTNV-0" />
        <mxCell id="Ztwu-xbcwovlSGAdrPju-1" value="" style="rounded=0;html=1;jettySize=auto;orthogonalLoop=1;fontSize=11;endArrow=block;endFill=0;endSize=8;strokeWidth=1;shadow=0;labelBackgroundColor=none;edgeStyle=orthogonalEdgeStyle;" edge="1" parent="WIyWlLk6GJQsqaUBKTNV-1" source="Ztwu-xbcwovlSGAdrPju-2">
          <mxGeometry relative="1" as="geometry">
            <mxPoint x="670" y="236" as="targetPoint" />
          </mxGeometry>
        </mxCell>
        <mxCell id="Ztwu-xbcwovlSGAdrPju-2" value="輸入加班日期" style="rounded=1;whiteSpace=wrap;html=1;fontSize=12;glass=0;strokeWidth=1;shadow=0;" vertex="1" parent="WIyWlLk6GJQsqaUBKTNV-1">
          <mxGeometry x="610" y="146" width="120" height="40" as="geometry" />
        </mxCell>
        <mxCell id="Ztwu-xbcwovlSGAdrPju-7" value="No" style="rounded=0;html=1;jettySize=auto;orthogonalLoop=1;fontSize=11;endArrow=block;endFill=0;endSize=8;strokeWidth=1;shadow=0;labelBackgroundColor=none;edgeStyle=orthogonalEdgeStyle;" edge="1" parent="WIyWlLk6GJQsqaUBKTNV-1" source="Ztwu-xbcwovlSGAdrPju-9" target="Ztwu-xbcwovlSGAdrPju-10">
          <mxGeometry x="0.3333" y="20" relative="1" as="geometry">
            <mxPoint as="offset" />
          </mxGeometry>
        </mxCell>
        <mxCell id="Ztwu-xbcwovlSGAdrPju-8" value="Yes" style="edgeStyle=orthogonalEdgeStyle;rounded=0;html=1;jettySize=auto;orthogonalLoop=1;fontSize=11;endArrow=block;endFill=0;endSize=8;strokeWidth=1;shadow=0;labelBackgroundColor=none;" edge="1" parent="WIyWlLk6GJQsqaUBKTNV-1" source="Ztwu-xbcwovlSGAdrPju-9" target="Ztwu-xbcwovlSGAdrPju-11">
          <mxGeometry y="10" relative="1" as="geometry">
            <mxPoint as="offset" />
          </mxGeometry>
        </mxCell>
        <mxCell id="Ztwu-xbcwovlSGAdrPju-9" value="是否為&lt;div&gt;例假日&lt;/div&gt;" style="rhombus;whiteSpace=wrap;html=1;shadow=0;fontFamily=Helvetica;fontSize=12;align=center;strokeWidth=1;spacing=6;spacingTop=-4;" vertex="1" parent="WIyWlLk6GJQsqaUBKTNV-1">
          <mxGeometry x="620" y="236" width="100" height="80" as="geometry" />
        </mxCell>
        <mxCell id="Ztwu-xbcwovlSGAdrPju-10" value="輸入加班工時" style="rounded=1;whiteSpace=wrap;html=1;fontSize=12;glass=0;strokeWidth=1;shadow=0;" vertex="1" parent="WIyWlLk6GJQsqaUBKTNV-1">
          <mxGeometry x="610" y="374" width="120" height="40" as="geometry" />
        </mxCell>
        <mxCell id="Ztwu-xbcwovlSGAdrPju-11" value="[週日]&lt;div&gt;全數報顧問費(*1.67)&lt;/div&gt;" style="rounded=1;whiteSpace=wrap;html=1;fontSize=12;glass=0;strokeWidth=1;shadow=0;" vertex="1" parent="WIyWlLk6GJQsqaUBKTNV-1">
          <mxGeometry x="770" y="256" width="120" height="40" as="geometry" />
        </mxCell>
        <mxCell id="Ztwu-xbcwovlSGAdrPju-13" value="" style="rounded=0;html=1;jettySize=auto;orthogonalLoop=1;fontSize=11;endArrow=block;endFill=0;endSize=8;strokeWidth=1;shadow=0;labelBackgroundColor=none;edgeStyle=orthogonalEdgeStyle;fillColor=#9C9C9C;" edge="1" parent="WIyWlLk6GJQsqaUBKTNV-1" source="Ztwu-xbcwovlSGAdrPju-14" target="Ztwu-xbcwovlSGAdrPju-17">
          <mxGeometry relative="1" as="geometry" />
        </mxCell>
        <mxCell id="Ztwu-xbcwovlSGAdrPju-14" value="&lt;div&gt;[津貼計算]&lt;/div&gt;輸入加班工時" style="rounded=1;whiteSpace=wrap;html=1;fontSize=12;glass=0;strokeWidth=1;shadow=0;fillColor=#9C9C9C;" vertex="1" parent="WIyWlLk6GJQsqaUBKTNV-1">
          <mxGeometry x="30" y="214" width="120" height="40" as="geometry" />
        </mxCell>
        <mxCell id="Ztwu-xbcwovlSGAdrPju-15" value="Yes" style="rounded=0;html=1;jettySize=auto;orthogonalLoop=1;fontSize=11;endArrow=block;endFill=0;endSize=8;strokeWidth=1;shadow=0;labelBackgroundColor=none;edgeStyle=orthogonalEdgeStyle;fillColor=#9C9C9C;" edge="1" parent="WIyWlLk6GJQsqaUBKTNV-1" source="Ztwu-xbcwovlSGAdrPju-17" target="Ztwu-xbcwovlSGAdrPju-21">
          <mxGeometry y="20" relative="1" as="geometry">
            <mxPoint as="offset" />
          </mxGeometry>
        </mxCell>
        <mxCell id="Ztwu-xbcwovlSGAdrPju-16" value="No" style="edgeStyle=orthogonalEdgeStyle;rounded=0;html=1;jettySize=auto;orthogonalLoop=1;fontSize=11;endArrow=block;endFill=0;endSize=8;strokeWidth=1;shadow=0;labelBackgroundColor=none;fillColor=#9C9C9C;" edge="1" parent="WIyWlLk6GJQsqaUBKTNV-1" source="Ztwu-xbcwovlSGAdrPju-17" target="Ztwu-xbcwovlSGAdrPju-18">
          <mxGeometry y="10" relative="1" as="geometry">
            <mxPoint as="offset" />
          </mxGeometry>
        </mxCell>
        <mxCell id="Ztwu-xbcwovlSGAdrPju-17" value="工時&amp;nbsp;&lt;div&gt;&amp;gt;= 4&lt;/div&gt;" style="rhombus;whiteSpace=wrap;html=1;shadow=0;fontFamily=Helvetica;fontSize=12;align=center;strokeWidth=1;spacing=6;spacingTop=-4;fillColor=#9C9C9C;" vertex="1" parent="WIyWlLk6GJQsqaUBKTNV-1">
          <mxGeometry x="40" y="304" width="100" height="80" as="geometry" />
        </mxCell>
        <mxCell id="Ztwu-xbcwovlSGAdrPju-18" value="津貼&lt;div&gt;0&lt;/div&gt;" style="rounded=1;whiteSpace=wrap;html=1;fontSize=12;glass=0;strokeWidth=1;shadow=0;fillColor=#9C9C9C;" vertex="1" parent="WIyWlLk6GJQsqaUBKTNV-1">
          <mxGeometry x="190" y="324" width="120" height="40" as="geometry" />
        </mxCell>
        <mxCell id="Ztwu-xbcwovlSGAdrPju-19" value="No" style="rounded=0;html=1;jettySize=auto;orthogonalLoop=1;fontSize=11;endArrow=block;endFill=0;endSize=8;strokeWidth=1;shadow=0;labelBackgroundColor=none;edgeStyle=orthogonalEdgeStyle;fillColor=#9C9C9C;" edge="1" parent="WIyWlLk6GJQsqaUBKTNV-1" source="Ztwu-xbcwovlSGAdrPju-21" target="Ztwu-xbcwovlSGAdrPju-22">
          <mxGeometry x="0.3333" y="20" relative="1" as="geometry">
            <mxPoint as="offset" />
          </mxGeometry>
        </mxCell>
        <mxCell id="Ztwu-xbcwovlSGAdrPju-20" value="Yes" style="edgeStyle=orthogonalEdgeStyle;rounded=0;html=1;jettySize=auto;orthogonalLoop=1;fontSize=11;endArrow=block;endFill=0;endSize=8;strokeWidth=1;shadow=0;labelBackgroundColor=none;fillColor=#9C9C9C;" edge="1" parent="WIyWlLk6GJQsqaUBKTNV-1">
          <mxGeometry x="-0.2211" y="14" relative="1" as="geometry">
            <mxPoint as="offset" />
            <mxPoint x="291" y="464" as="sourcePoint" />
            <mxPoint x="341" y="463.9999999999998" as="targetPoint" />
          </mxGeometry>
        </mxCell>
        <mxCell id="Ztwu-xbcwovlSGAdrPju-21" value="是否為六日" style="rhombus;whiteSpace=wrap;html=1;shadow=0;fontFamily=Helvetica;fontSize=12;align=center;strokeWidth=1;spacing=6;spacingTop=-4;fillColor=#9C9C9C;" vertex="1" parent="WIyWlLk6GJQsqaUBKTNV-1">
          <mxGeometry x="40" y="424" width="100" height="80" as="geometry" />
        </mxCell>
        <mxCell id="Ztwu-xbcwovlSGAdrPju-22" value="津貼&lt;div&gt;500&lt;/div&gt;" style="rounded=1;whiteSpace=wrap;html=1;fontSize=12;glass=0;strokeWidth=1;shadow=0;fillColor=#9C9C9C;" vertex="1" parent="WIyWlLk6GJQsqaUBKTNV-1">
          <mxGeometry x="30" y="564" width="120" height="40" as="geometry" />
        </mxCell>
        <mxCell id="Ztwu-xbcwovlSGAdrPju-23" value="津貼&lt;div&gt;1000&lt;/div&gt;" style="rounded=1;whiteSpace=wrap;html=1;fontSize=12;glass=0;strokeWidth=1;shadow=0;fillColor=#9C9C9C;" vertex="1" parent="WIyWlLk6GJQsqaUBKTNV-1">
          <mxGeometry x="340" y="444" width="120" height="40" as="geometry" />
        </mxCell>
        <mxCell id="Ztwu-xbcwovlSGAdrPju-24" value="工時&amp;nbsp;&lt;div&gt;&amp;gt;= 8&lt;/div&gt;" style="rhombus;whiteSpace=wrap;html=1;shadow=0;fontFamily=Helvetica;fontSize=12;align=center;strokeWidth=1;spacing=6;spacingTop=-4;fillColor=#9C9C9C;" vertex="1" parent="WIyWlLk6GJQsqaUBKTNV-1">
          <mxGeometry x="190" y="424" width="100" height="80" as="geometry" />
        </mxCell>
        <mxCell id="Ztwu-xbcwovlSGAdrPju-25" value="Yes" style="edgeStyle=orthogonalEdgeStyle;rounded=0;html=1;jettySize=auto;orthogonalLoop=1;fontSize=11;endArrow=block;endFill=0;endSize=8;strokeWidth=1;shadow=0;labelBackgroundColor=none;exitX=1;exitY=0.5;exitDx=0;exitDy=0;entryX=0;entryY=0.5;entryDx=0;entryDy=0;fillColor=#9C9C9C;" edge="1" parent="WIyWlLk6GJQsqaUBKTNV-1" source="Ztwu-xbcwovlSGAdrPju-21" target="Ztwu-xbcwovlSGAdrPju-24">
          <mxGeometry y="10" relative="1" as="geometry">
            <mxPoint as="offset" />
            <mxPoint x="290" y="554" as="sourcePoint" />
            <mxPoint x="485" y="574" as="targetPoint" />
          </mxGeometry>
        </mxCell>
        <mxCell id="Ztwu-xbcwovlSGAdrPju-26" value="No" style="rounded=0;html=1;jettySize=auto;orthogonalLoop=1;fontSize=11;endArrow=block;endFill=0;endSize=8;strokeWidth=1;shadow=0;labelBackgroundColor=none;edgeStyle=orthogonalEdgeStyle;fillColor=#9C9C9C;" edge="1" parent="WIyWlLk6GJQsqaUBKTNV-1" target="Ztwu-xbcwovlSGAdrPju-27">
          <mxGeometry x="0.3333" y="20" relative="1" as="geometry">
            <mxPoint as="offset" />
            <mxPoint x="240" y="504" as="sourcePoint" />
          </mxGeometry>
        </mxCell>
        <mxCell id="Ztwu-xbcwovlSGAdrPju-27" value="津貼&lt;div&gt;0&lt;/div&gt;" style="rounded=1;whiteSpace=wrap;html=1;fontSize=12;glass=0;strokeWidth=1;shadow=0;fillColor=#9C9C9C;" vertex="1" parent="WIyWlLk6GJQsqaUBKTNV-1">
          <mxGeometry x="180" y="564" width="120" height="40" as="geometry" />
        </mxCell>
        <mxCell id="Ztwu-xbcwovlSGAdrPju-29" value="超過工時&amp;nbsp;&lt;div&gt;&amp;gt; 4&lt;/div&gt;" style="rhombus;whiteSpace=wrap;html=1;shadow=0;fontFamily=Helvetica;fontSize=12;align=center;strokeWidth=1;spacing=6;spacingTop=-4;" vertex="1" parent="WIyWlLk6GJQsqaUBKTNV-1">
          <mxGeometry x="620" y="597" width="100" height="80" as="geometry" />
        </mxCell>
        <mxCell id="Ztwu-xbcwovlSGAdrPju-31" value="" style="rounded=0;html=1;jettySize=auto;orthogonalLoop=1;fontSize=11;endArrow=block;endFill=0;endSize=8;strokeWidth=1;shadow=0;labelBackgroundColor=none;edgeStyle=orthogonalEdgeStyle;exitX=0.5;exitY=1;exitDx=0;exitDy=0;" edge="1" parent="WIyWlLk6GJQsqaUBKTNV-1" source="Ztwu-xbcwovlSGAdrPju-10" target="Ztwu-xbcwovlSGAdrPju-34">
          <mxGeometry relative="1" as="geometry">
            <mxPoint x="670" y="424" as="sourcePoint" />
            <mxPoint x="680" y="244" as="targetPoint" />
          </mxGeometry>
        </mxCell>
        <mxCell id="Ztwu-xbcwovlSGAdrPju-32" value="&lt;div&gt;超過的部分&lt;/div&gt;&lt;div&gt;報系統加班費(*1.67)&lt;/div&gt;" style="rounded=1;whiteSpace=wrap;html=1;fontSize=12;glass=0;strokeWidth=1;shadow=0;" vertex="1" parent="WIyWlLk6GJQsqaUBKTNV-1">
          <mxGeometry x="770" y="617" width="120" height="40" as="geometry" />
        </mxCell>
        <mxCell id="Ztwu-xbcwovlSGAdrPju-33" value="No" style="rounded=0;html=1;jettySize=auto;orthogonalLoop=1;fontSize=11;endArrow=block;endFill=0;endSize=8;strokeWidth=1;shadow=0;labelBackgroundColor=none;edgeStyle=orthogonalEdgeStyle;exitX=1;exitY=0.5;exitDx=0;exitDy=0;" edge="1" parent="WIyWlLk6GJQsqaUBKTNV-1" source="Ztwu-xbcwovlSGAdrPju-29" target="Ztwu-xbcwovlSGAdrPju-32">
          <mxGeometry x="0.3333" y="20" relative="1" as="geometry">
            <mxPoint as="offset" />
            <mxPoint x="950" y="419" as="sourcePoint" />
            <mxPoint x="950" y="479" as="targetPoint" />
          </mxGeometry>
        </mxCell>
        <mxCell id="Ztwu-xbcwovlSGAdrPju-34" value="超過工時&amp;nbsp;&lt;div&gt;&amp;gt; 2&lt;/div&gt;" style="rhombus;whiteSpace=wrap;html=1;shadow=0;fontFamily=Helvetica;fontSize=12;align=center;strokeWidth=1;spacing=6;spacingTop=-4;" vertex="1" parent="WIyWlLk6GJQsqaUBKTNV-1">
          <mxGeometry x="620" y="467" width="100" height="80" as="geometry" />
        </mxCell>
        <mxCell id="Ztwu-xbcwovlSGAdrPju-37" value="Yes" style="edgeStyle=orthogonalEdgeStyle;rounded=0;html=1;jettySize=auto;orthogonalLoop=1;fontSize=11;endArrow=block;endFill=0;endSize=8;strokeWidth=1;shadow=0;labelBackgroundColor=none;exitX=0.5;exitY=1;exitDx=0;exitDy=0;" edge="1" parent="WIyWlLk6GJQsqaUBKTNV-1" source="Ztwu-xbcwovlSGAdrPju-34">
          <mxGeometry y="10" relative="1" as="geometry">
            <mxPoint as="offset" />
            <mxPoint x="730" y="297" as="sourcePoint" />
            <mxPoint x="670" y="597" as="targetPoint" />
          </mxGeometry>
        </mxCell>
        <mxCell id="Ztwu-xbcwovlSGAdrPju-38" value="&lt;div&gt;超過的部分&lt;/div&gt;&lt;div&gt;報顧問費(*1.67)&lt;/div&gt;" style="rounded=1;whiteSpace=wrap;html=1;fontSize=12;glass=0;strokeWidth=1;shadow=0;" vertex="1" parent="WIyWlLk6GJQsqaUBKTNV-1">
          <mxGeometry x="610" y="731" width="120" height="40" as="geometry" />
        </mxCell>
        <mxCell id="Ztwu-xbcwovlSGAdrPju-39" value="Yes" style="edgeStyle=orthogonalEdgeStyle;rounded=0;html=1;jettySize=auto;orthogonalLoop=1;fontSize=11;endArrow=block;endFill=0;endSize=8;strokeWidth=1;shadow=0;labelBackgroundColor=none;exitX=0.5;exitY=1;exitDx=0;exitDy=0;entryX=0.5;entryY=0;entryDx=0;entryDy=0;" edge="1" parent="WIyWlLk6GJQsqaUBKTNV-1" source="Ztwu-xbcwovlSGAdrPju-29" target="Ztwu-xbcwovlSGAdrPju-38">
          <mxGeometry y="10" relative="1" as="geometry">
            <mxPoint as="offset" />
            <mxPoint x="680" y="557" as="sourcePoint" />
            <mxPoint x="680" y="607" as="targetPoint" />
          </mxGeometry>
        </mxCell>
        <mxCell id="Ztwu-xbcwovlSGAdrPju-40" value="&lt;div&gt;超過的部分&lt;/div&gt;&lt;div&gt;報系統加班費(*1.33)&lt;/div&gt;" style="rounded=1;whiteSpace=wrap;html=1;fontSize=12;glass=0;strokeWidth=1;shadow=0;" vertex="1" parent="WIyWlLk6GJQsqaUBKTNV-1">
          <mxGeometry x="770" y="487" width="120" height="40" as="geometry" />
        </mxCell>
        <mxCell id="Ztwu-xbcwovlSGAdrPju-41" value="No" style="rounded=0;html=1;jettySize=auto;orthogonalLoop=1;fontSize=11;endArrow=block;endFill=0;endSize=8;strokeWidth=1;shadow=0;labelBackgroundColor=none;edgeStyle=orthogonalEdgeStyle;exitX=1;exitY=0.5;exitDx=0;exitDy=0;" edge="1" parent="WIyWlLk6GJQsqaUBKTNV-1" target="Ztwu-xbcwovlSGAdrPju-40">
          <mxGeometry x="0.3333" y="20" relative="1" as="geometry">
            <mxPoint as="offset" />
            <mxPoint x="720" y="507" as="sourcePoint" />
            <mxPoint x="950" y="349" as="targetPoint" />
          </mxGeometry>
        </mxCell>
      </root>
    </mxGraphModel>
  </diagram>
</mxfile>
